<svg width="1175" height="332" viewBox="0 0 1175 332" fill="none" xmlns="http://www.w3.org/2000/svg">
<path d="M450.978 251.499L450.99 251.506C465.226 259.688 482.083 263.654 501.337 263.654C518.432 263.654 533.502 260.566 546.367 254.174L546.38 254.168C559.263 247.727 569.381 238.637 576.573 226.904C583.835 215.18 587.67 201.594 588.233 186.318L588.443 180.616H582.736H530.563H525.64L525.097 185.508C524.48 191.056 523.039 195.51 520.941 199.035C518.814 202.532 516.191 205.048 513.082 206.75L513.062 206.76L513.043 206.771C510.014 208.46 506.395 209.385 502.022 209.385C496.647 209.385 492.143 207.926 488.29 205.103C484.44 202.208 481.19 197.794 478.737 191.47C476.375 185.111 475.099 177.061 475.099 167.164C475.099 157.253 476.379 149.292 478.73 143.105C481.187 136.764 484.436 132.398 488.267 129.585L488.289 129.568L488.311 129.552C492.169 126.659 496.663 125.172 502.022 125.172C508.729 125.172 513.705 127.257 517.482 131.151L517.497 131.166L517.512 131.181C521.474 135.203 524.141 140.996 525.101 149.089L525.677 153.941H530.563H582.736H588.384L588.234 148.296C587.831 133.055 583.986 119.534 576.53 107.927C569.177 96.285 558.94 87.3228 545.98 81.0458C533.064 74.7526 518.092 71.7027 501.223 71.7027C482.112 71.7027 465.334 75.6725 451.104 83.8505L451.092 83.8574C437.014 91.995 426.124 103.382 418.493 117.914L418.488 117.924C410.932 132.385 407.245 149.042 407.245 167.735C407.245 186.358 410.934 203.008 418.482 217.535L418.488 217.546C426.046 232.014 436.903 243.363 450.978 251.499ZM811.258 82.0763L811.25 82.0808L811.243 82.0853C799.596 89.1239 790.38 99.8628 783.464 113.935C776.432 128.245 773.082 146.12 773.082 167.279C773.082 187.691 776.323 205.18 783.083 219.514C789.763 233.679 798.849 244.604 810.46 251.955C821.95 259.229 834.736 262.854 848.679 262.854C858.092 262.854 866.535 261.314 873.859 258.043C881.012 254.881 887.096 250.657 892.001 245.322C892.764 244.492 893.501 243.65 894.211 242.797V254.843V260.343H899.711H954.967H960.467V254.843V21.0337V15.5337H954.967H899.14H893.64V21.0337V91.9115C893.255 91.4418 892.862 90.9743 892.461 90.5092C887.654 84.9291 881.621 80.4553 874.474 77.0442C867.01 73.4044 858.272 71.7027 848.451 71.7027C835.186 71.7027 822.755 75.1778 811.258 82.0763ZM891.344 144.266L891.353 144.291L891.362 144.316C893.663 150.473 894.896 158.047 894.896 167.164C894.896 176.116 893.667 183.663 891.355 189.917C889.042 196.176 885.87 200.719 882 203.858C878.286 206.798 873.749 208.358 868.087 208.358C862.251 208.358 857.652 206.785 853.963 203.871C850.178 200.745 847.079 196.218 844.837 189.967C842.588 183.696 841.393 176.131 841.393 167.164C841.393 158.193 842.551 150.665 844.725 144.471C846.96 138.318 850.082 133.88 853.925 130.83C857.621 127.897 862.231 126.314 868.087 126.314C873.787 126.314 878.345 127.857 882.064 130.749L882.08 130.762L882.097 130.775C885.979 133.747 889.118 138.127 891.344 144.266ZM1009.23 252.124L1009.25 252.133L1009.27 252.142C1023.54 259.892 1040.32 263.654 1059.38 263.654C1075.23 263.654 1089.42 261.25 1101.83 256.299L1101.85 256.293L1101.86 256.287C1114.22 251.279 1124.39 244.208 1132.19 234.993C1140.07 225.705 1145.15 214.806 1147.45 202.417L1148.62 196.102L1142.2 195.916L1090.94 194.432L1087 194.318L1085.62 198.01C1084.46 201.125 1082.77 203.656 1080.54 205.702C1078.26 207.804 1075.48 209.447 1072.11 210.591C1068.73 211.739 1064.85 212.354 1060.41 212.354C1054.02 212.354 1048.84 211.034 1044.65 208.63C1040.39 206.188 1037.13 202.813 1034.8 198.405C1032.97 194.884 1031.8 190.82 1031.38 186.136H1142.61H1148.11V180.636V166.708C1148.11 151.798 1145.94 138.374 1141.48 126.527C1137.05 114.699 1130.8 104.616 1122.66 96.3945C1114.54 88.2005 1104.92 82.0266 1093.85 77.8753C1082.81 73.7342 1070.73 71.7027 1057.67 71.7027C1039.21 71.7027 1022.89 75.6868 1008.9 83.8645C994.968 91.9309 984.165 103.28 976.541 117.795C968.901 132.265 965.177 149.006 965.177 167.849C965.177 187.191 968.85 204.2 976.419 218.688L976.428 218.704L976.437 218.721C984.087 233.127 995.047 244.297 1009.23 252.124ZM1084.59 142.713H1032.08C1032.72 140.254 1033.68 137.992 1034.96 135.903L1034.97 135.887L1034.98 135.87C1037.37 131.908 1040.58 128.817 1044.69 126.538L1044.72 126.523L1044.75 126.507C1048.79 124.207 1053.43 123.003 1058.81 123.003C1064.16 123.003 1068.65 124.151 1072.43 126.288L1072.48 126.314L1072.53 126.339C1076.45 128.456 1079.48 131.369 1081.7 135.14C1083.05 137.428 1084.02 139.942 1084.59 142.713Z" fill="black" stroke="white" stroke-width="11"/>
<path d="M143.357 177.32V80.3018H197.589V251H145.802V219.216H144.024C140.245 229.663 133.8 237.961 124.687 244.11C115.648 250.185 104.72 253.223 91.9029 253.223C80.2712 253.223 70.047 250.555 61.2306 245.221C52.4141 239.887 45.561 232.441 40.6712 222.884C35.7814 213.252 33.2995 201.991 33.2254 189.1V80.3018H87.5688V178.431C87.6429 187.692 90.0878 194.99 94.9035 200.324C99.7192 205.658 106.276 208.325 114.574 208.325C119.982 208.325 124.835 207.14 129.132 204.769C133.503 202.324 136.948 198.805 139.467 194.212C142.06 189.544 143.357 183.914 143.357 177.32ZM219.661 315.012V80.3018H273.449V109.529H275.116C277.338 104.343 280.487 99.3423 284.562 94.5266C288.711 89.7109 293.971 85.7843 300.343 82.7466C306.788 79.635 314.493 78.0791 323.458 78.0791C335.312 78.0791 346.388 81.1908 356.686 87.4142C367.059 93.6375 375.431 103.232 381.802 116.197C388.174 129.163 391.359 145.684 391.359 165.762C391.359 185.099 388.285 201.287 382.136 214.327C376.06 227.366 367.837 237.146 357.464 243.665C347.166 250.185 335.72 253.445 323.125 253.445C314.53 253.445 307.085 252.037 300.787 249.222C294.49 246.407 289.192 242.702 284.895 238.109C280.672 233.515 277.412 228.588 275.116 223.328H274.004V315.012H219.661ZM272.893 165.651C272.893 174.838 274.116 182.839 276.56 189.655C279.079 196.471 282.673 201.769 287.34 205.547C292.082 209.252 297.75 211.104 304.343 211.104C311.011 211.104 316.679 209.252 321.346 205.547C326.014 201.769 329.533 196.471 331.904 189.655C334.349 182.839 335.571 174.838 335.571 165.651C335.571 156.464 334.349 148.5 331.904 141.758C329.533 135.016 326.014 129.792 321.346 126.088C316.753 122.384 311.085 120.531 304.343 120.531C297.675 120.531 292.008 122.347 287.34 125.977C282.673 129.607 279.079 134.793 276.56 141.535C274.116 148.277 272.893 156.316 272.893 165.651Z" fill="black"/>
<path d="M143.357 80.3018V69.3018H132.357V80.3018H143.357ZM197.589 80.3018H208.589V69.3018H197.589V80.3018ZM197.589 251V262H208.589V251H197.589ZM145.802 251H134.802V262H145.802V251ZM145.802 219.216H156.802V208.216H145.802V219.216ZM144.024 219.216V208.216H136.305L133.68 215.475L144.024 219.216ZM124.687 244.11L130.823 253.239L130.831 253.234L130.84 253.228L124.687 244.11ZM61.2306 245.221L55.5363 254.633L55.5363 254.633L61.2306 245.221ZM40.6712 222.884L30.8629 227.863L30.8707 227.879L30.8785 227.894L40.6712 222.884ZM33.2254 189.1H22.2254V189.131L22.2256 189.163L33.2254 189.1ZM33.2254 80.3018V69.3018H22.2254V80.3018H33.2254ZM87.5688 80.3018H98.5688V69.3018H87.5688V80.3018ZM87.5688 178.431H76.5688V178.475L76.5691 178.519L87.5688 178.431ZM94.9035 200.324L103.068 192.953L103.068 192.953L94.9035 200.324ZM129.132 204.769L134.446 214.401L134.474 214.385L134.502 214.37L129.132 204.769ZM139.467 194.212L129.852 188.87L129.837 188.896L129.822 188.923L139.467 194.212ZM154.357 177.32V80.3018H132.357V177.32H154.357ZM143.357 91.3018H197.589V69.3018H143.357V91.3018ZM186.589 80.3018V251H208.589V80.3018H186.589ZM197.589 240H145.802V262H197.589V240ZM156.802 251V219.216H134.802V251H156.802ZM145.802 208.216H144.024V230.216H145.802V208.216ZM133.68 215.475C130.685 223.755 125.694 230.16 118.534 234.992L130.84 253.228C141.905 245.761 149.806 235.57 154.368 222.958L133.68 215.475ZM118.551 234.98C111.628 239.633 102.929 242.223 91.9029 242.223V264.223C106.511 264.223 119.668 260.737 130.823 253.239L118.551 234.98ZM91.9029 242.223C82.0139 242.223 73.8106 239.976 66.9249 235.81L55.5363 254.633C66.2835 261.135 78.5284 264.223 91.9029 264.223V242.223ZM66.9249 235.81C59.9321 231.579 54.4638 225.691 50.464 217.873L30.8785 227.894C36.6583 239.191 44.8962 248.195 55.5363 254.633L66.9249 235.81ZM50.4796 217.904C46.4994 210.064 44.2914 200.546 44.2252 189.036L22.2256 189.163C22.3076 203.435 25.0635 216.44 30.8629 227.863L50.4796 217.904ZM44.2254 189.1V80.3018H22.2254V189.1H44.2254ZM33.2254 91.3018H87.5688V69.3018H33.2254V91.3018ZM76.5688 80.3018V178.431H98.5688V80.3018H76.5688ZM76.5691 178.519C76.6584 189.674 79.6466 199.839 86.7385 207.695L103.068 192.953C100.529 190.14 98.6274 185.71 98.5684 178.343L76.5691 178.519ZM86.7385 207.695C93.9705 215.706 103.694 219.325 114.574 219.325V197.325C108.858 197.325 105.468 195.611 103.068 192.953L86.7385 207.695ZM114.574 219.325C121.647 219.325 128.36 217.758 134.446 214.401L123.818 195.138C121.31 196.522 118.318 197.325 114.574 197.325V219.325ZM134.502 214.37C140.759 210.87 145.649 205.817 149.112 199.501L129.822 188.923C128.248 191.794 126.247 193.779 123.762 195.169L134.502 214.37ZM149.083 199.554C152.774 192.91 154.357 185.349 154.357 177.32H132.357C132.357 182.478 131.347 186.178 129.852 188.87L149.083 199.554ZM219.661 315.012H208.661V326.012H219.661V315.012ZM219.661 80.3018V69.3018H208.661V80.3018H219.661ZM273.449 80.3018H284.449V69.3018H273.449V80.3018ZM273.449 109.529H262.449V120.529H273.449V109.529ZM275.116 109.529V120.529H282.369L285.226 113.862L275.116 109.529ZM284.562 94.5266L276.228 87.3468L276.196 87.3839L276.165 87.4212L284.562 94.5266ZM300.343 82.7466L305.076 92.676L305.101 92.6644L305.125 92.6527L300.343 82.7466ZM356.686 87.4142L350.997 96.8286L351.012 96.8376L351.027 96.8466L356.686 87.4142ZM381.802 116.197L391.674 111.346L391.674 111.346L381.802 116.197ZM382.136 214.327L372.186 209.635L372.175 209.658L372.165 209.681L382.136 214.327ZM357.464 243.665L351.61 234.352L351.595 234.362L351.58 234.371L357.464 243.665ZM300.787 249.222L296.298 259.264L296.298 259.264L300.787 249.222ZM284.895 238.109L276.797 245.554L276.83 245.589L276.862 245.623L284.895 238.109ZM275.116 223.328L285.197 218.927L282.316 212.328H275.116V223.328ZM274.004 223.328V212.328H263.004V223.328H274.004ZM274.004 315.012V326.012H285.004V315.012H274.004ZM276.56 189.655L266.206 193.369L266.224 193.419L266.242 193.468L276.56 189.655ZM287.34 205.547L280.419 214.097L280.493 214.157L280.568 214.215L287.34 205.547ZM321.346 205.547L328.185 214.163L328.226 214.13L328.268 214.097L321.346 205.547ZM331.904 189.655L321.55 185.941L321.532 185.991L321.515 186.042L331.904 189.655ZM331.904 141.758L321.527 145.407L321.545 145.457L321.563 145.508L331.904 141.758ZM321.346 126.088L314.441 134.651L314.475 134.677L314.508 134.704L321.346 126.088ZM287.34 125.977L280.587 117.294L280.587 117.294L287.34 125.977ZM276.56 141.535L266.256 137.685L266.238 137.735L266.219 137.785L276.56 141.535ZM230.661 315.012V80.3018H208.661V315.012H230.661ZM219.661 91.3018H273.449V69.3018H219.661V91.3018ZM262.449 80.3018V109.529H284.449V80.3018H262.449ZM273.449 120.529H275.116V98.5294H273.449V120.529ZM285.226 113.862C286.971 109.791 289.508 105.711 292.959 101.632L276.165 87.4212C271.466 92.9737 267.705 98.8955 265.005 105.196L285.226 113.862ZM292.896 101.706C295.943 98.1688 299.93 95.1296 305.076 92.676L295.609 72.8173C288.012 76.4389 281.478 81.253 276.228 87.3468L292.896 101.706ZM305.125 92.6527C309.751 90.4193 315.742 89.0791 323.458 89.0791V67.0791C313.245 67.0791 303.825 68.8506 295.56 72.8406L305.125 92.6527ZM323.458 89.0791C333.275 89.0791 342.388 91.6261 350.997 96.8286L362.376 77.9997C350.388 70.7556 337.349 67.0791 323.458 67.0791V89.0791ZM351.027 96.8466C359.256 101.784 366.308 109.61 371.93 121.049L391.674 111.346C384.553 96.8539 374.861 85.491 362.346 77.9818L351.027 96.8466ZM371.93 121.049C377.328 132.034 380.359 146.749 380.359 165.762H402.359C402.359 144.619 399.019 126.291 391.674 111.346L371.93 121.049ZM380.359 165.762C380.359 184.003 377.45 198.474 372.186 209.635L392.085 219.018C399.12 204.1 402.359 186.195 402.359 165.762H380.359ZM372.165 209.681C366.825 221.141 359.896 229.144 351.61 234.352L363.318 252.978C375.777 245.147 385.295 233.591 392.106 218.972L372.165 209.681ZM351.58 234.371C343.103 239.738 333.709 242.445 323.125 242.445V264.445C337.73 264.445 351.229 260.632 363.348 252.959L351.58 234.371ZM323.125 242.445C315.708 242.445 309.859 241.229 305.277 239.18L296.298 259.264C304.31 262.846 313.353 264.445 323.125 264.445V242.445ZM305.277 239.18C300.187 236.904 296.131 234.018 292.928 230.594L276.862 245.623C282.253 251.386 288.793 255.909 296.298 259.264L305.277 239.18ZM292.993 230.664C289.523 226.89 286.965 222.976 285.197 218.927L265.035 227.73C267.86 234.201 271.821 240.141 276.797 245.554L292.993 230.664ZM275.116 212.328H274.004V234.328H275.116V212.328ZM263.004 223.328V315.012H285.004V223.328H263.004ZM274.004 304.012H219.661V326.012H274.004V304.012ZM261.893 165.651C261.893 175.779 263.237 185.09 266.206 193.369L286.914 185.941C284.994 180.588 283.893 173.897 283.893 165.651H261.893ZM266.242 193.468C269.303 201.75 273.92 208.836 280.419 214.097L294.261 196.997C291.425 194.702 288.856 191.193 286.878 185.842L266.242 193.468ZM280.568 214.215C287.432 219.578 295.545 222.104 304.343 222.104V200.104C299.954 200.104 296.732 198.925 294.112 196.879L280.568 214.215ZM304.343 222.104C313.182 222.104 321.341 219.595 328.185 214.163L314.508 196.931C312.017 198.908 308.841 200.104 304.343 200.104V222.104ZM328.268 214.097C334.824 208.789 339.386 201.628 342.293 193.269L321.515 186.042C319.68 191.315 317.204 194.748 314.425 196.997L328.268 214.097ZM342.258 193.369C345.228 185.09 346.571 175.779 346.571 165.651H324.571C324.571 173.897 323.47 180.588 321.55 185.941L342.258 193.369ZM346.571 165.651C346.571 155.527 345.229 146.236 342.245 138.008L321.563 145.508C323.469 150.763 324.571 157.401 324.571 165.651H346.571ZM342.281 138.108C339.361 129.804 334.775 122.702 328.185 117.472L314.508 134.704C317.253 136.883 319.706 140.227 321.527 145.407L342.281 138.108ZM328.252 117.525C321.428 112.022 313.221 109.531 304.343 109.531V131.531C308.95 131.531 312.078 132.745 314.441 134.651L328.252 117.525ZM304.343 109.531C295.558 109.531 287.43 111.972 280.587 117.294L294.094 134.66C296.586 132.721 299.793 131.531 304.343 131.531V109.531ZM280.587 117.294C273.993 122.422 269.333 129.45 266.256 137.685L286.865 145.385C288.826 140.137 291.352 136.792 294.094 134.66L280.587 117.294ZM266.219 137.785C263.229 146.031 261.893 155.402 261.893 165.651H283.893C283.893 157.229 285.002 150.524 286.901 145.285L266.219 137.785Z" fill="white"/>
<path d="M597.893 145.341H592.393V150.841V161.681V167.181V168.901V174.401V185.242V190.742H597.893C605.229 190.742 608.635 192.349 610.05 193.898L610.064 193.912L610.077 193.927C611.727 195.706 613.13 199.184 613.13 205.596V216.776C613.13 227.497 614.65 236.504 618.216 243.276L618.22 243.283L618.223 243.289C621.701 249.852 626.531 254.832 632.79 257.851L632.798 257.855L632.807 257.859C638.593 260.627 645.027 262.23 652.031 262.753C658.607 263.29 665.375 263.558 672.333 263.558H677.833V258.058V229.39V223.89H672.333C667.263 223.89 664.37 223.243 662.97 222.54C661.68 221.892 661.056 221.097 660.718 219.992C660.123 217.992 659.755 215.245 659.755 211.616V195.849C659.755 191.483 658.835 187.25 657.039 183.192C655.058 178.558 651.514 174.734 646.922 171.598C644.974 170.268 642.756 169.088 640.29 168.041C642.756 166.995 644.974 165.814 646.922 164.485C651.505 161.354 655.054 157.557 657.039 152.962C658.831 148.864 659.755 144.608 659.755 140.234V124.466C659.755 120.769 660.128 118.033 660.714 116.102L655.451 114.504L660.714 116.102C661.051 114.991 661.676 114.193 662.97 113.543C664.37 112.84 667.263 112.192 672.333 112.192H677.833V106.692V78.0248V72.5248H672.333C665.375 72.5248 658.608 72.7924 652.032 73.3298C645.028 73.8529 638.594 75.4557 632.807 78.2231L632.798 78.2272L632.79 78.2312C626.531 81.2502 621.701 86.2306 618.223 92.7934L618.22 92.7998L618.216 92.8062C614.65 99.5783 613.13 108.586 613.13 119.306V130.487C613.13 136.871 611.739 140.398 610.064 142.241C608.644 143.76 605.224 145.341 597.893 145.341ZM761.851 190.742H767.351V185.242V174.401V168.901V167.181V161.681V150.841V145.341H761.851C754.608 145.341 751.15 143.778 749.665 142.226C747.997 140.378 746.614 136.853 746.614 130.487V119.306C746.614 108.59 745.073 99.5788 741.458 92.8002C738.019 86.2238 733.181 81.2433 726.881 78.2278C721.13 75.4551 714.714 73.8529 707.714 73.3299C701.179 72.7923 694.411 72.5248 687.411 72.5248H681.911V78.0248V106.692V112.192H687.411C692.481 112.192 695.373 112.84 696.774 113.543C698.068 114.193 698.693 114.991 699.03 116.102C699.616 118.033 699.989 120.769 699.989 124.466V140.234C699.989 144.588 700.882 148.83 702.621 152.921L702.638 152.961L702.656 153.001C704.684 157.569 708.24 161.355 712.822 164.485C714.769 165.814 716.988 166.995 719.454 168.041C716.988 169.088 714.769 170.268 712.822 171.598C708.223 174.739 704.668 178.559 702.644 183.179L702.638 183.194L702.632 183.208C700.882 187.266 699.989 191.493 699.989 195.849V211.616C699.989 215.245 699.62 217.993 699.026 219.993C698.688 221.098 698.063 221.892 696.774 222.54C695.373 223.243 692.481 223.89 687.411 223.89H681.911V229.39V258.058V263.558H687.411C694.411 263.558 701.179 263.29 707.714 262.753C714.714 262.23 721.13 260.628 726.88 257.855C733.181 254.839 738.019 249.859 741.458 243.282C745.073 236.503 746.614 227.492 746.614 216.776V205.596C746.614 199.184 748.017 195.706 749.667 193.927C751.139 192.339 754.583 190.742 761.851 190.742Z" fill="#0000EE" stroke="white" stroke-width="11"/>
</svg>
